<?xml version="1.0" encoding="utf-8"?>
<!-- Generator: Adobe Illustrator 24.0.2, SVG Export Plug-In . SVG Version: 6.00 Build 0)  -->
<svg version="1.1" id="Capa_1" xmlns="http://www.w3.org/2000/svg" xmlns:xlink="http://www.w3.org/1999/xlink" x="0px" y="0px"
	 viewBox="0 0 512 512" style="enable-background:new 0 0 512 512;" xml:space="preserve">
<g>
	<g>
		<path d="M507-3.6c-3.1-1.8-7-1.7-10,0.1L313.7,104.8c-4.8,2.8-6.3,8.9-3.5,13.7c2.8,4.8,8.9,6.3,13.7,3.5l131.5-77.7L210.4,298.4
			L88.6,261.1l159-94c4.8-2.8,6.3-8.9,3.5-13.7c-2.8-4.8-8.9-6.3-13.7-3.5L58.9,255.5c-3.4,2-5.3,5.9-4.8,9.8s3.2,7.2,7,8.4
			l145.5,44.5l64.2,116.8c0.1,0.1,0.1,0.2,0.2,0.3c1.1,1.8,2.7,3.2,4.7,4.1c1.3,0.5,2.6,0.8,3.9,0.8c2.6,0,5.1-1,7-2.8l73.8-72.1
			l138.8,42.5c1,0.3,1.9,0.4,2.9,0.4c2.1,0,4.2-0.7,5.9-2c2.5-1.9,4.1-4.9,4.1-8V5.1C512,1.5,510.1-1.8,507-3.6z M271.3,324.3
			c-1.2,1.7-1.8,3.7-1.8,5.7v61.2l-43.8-79.8l193.9-201.2L271.3,324.3z M289.5,406.4v-62.9l49,15L289.5,406.4z M492,384.5
			l-196.5-60.1L492,40.8V384.5z"/>
	</g>
</g>
<g>
	<g>
		<path d="M164.4,347.6c-3.9-3.9-10.2-3.9-14.1,0l-93.4,93.4c-3.9,3.9-3.9,10.2,0,14.1c2,2,4.5,2.9,7.1,2.9s5.1-1,7.1-2.9l93.4-93.4
			C168.3,357.8,168.3,351.5,164.4,347.6z"/>
	</g>
</g>
<g>
	<g>
		<path d="M40.1,471.9c-3.9-3.9-10.2-3.9-14.1,0l-23,23c-3.9,3.9-3.9,10.2,0,14.1c2,2,4.5,2.9,7.1,2.9s5.1-1,7.1-2.9l23-23
			C44,482.2,44,475.8,40.1,471.9z"/>
	</g>
</g>
<g>
	<g>
		<path d="M142.6,494.3c-1.9-1.9-4.4-2.9-7.1-2.9c-2.6,0-5.2,1.1-7.1,2.9s-2.9,4.4-2.9,7.1c0,2.6,1.1,5.2,2.9,7.1
			c1.9,1.9,4.4,2.9,7.1,2.9s5.2-1.1,7.1-2.9c1.9-1.9,2.9-4.4,2.9-7.1C145.6,498.8,144.5,496.2,142.6,494.3z"/>
	</g>
</g>
<g>
	<g>
		<path d="M217.1,419.9c-3.9-3.9-10.2-3.9-14.1,0l-49.4,49.4c-3.9,3.9-3.9,10.2,0,14.1c2,2,4.5,2.9,7.1,2.9s5.1-1,7.1-2.9l49.4-49.4
			C221,430.2,221,423.8,217.1,419.9z"/>
	</g>
</g>
<g>
	<g>
		<path d="M387.7,416.1c-3.9-3.9-10.2-3.9-14.1,0L324,465.7c-3.9,3.9-3.9,10.2,0,14.1c2,2,4.5,2.9,7.1,2.9s5.1-1,7.1-2.9l49.6-49.6
			C391.6,426.4,391.6,420,387.7,416.1z"/>
	</g>
</g>
<g>
	<g>
		<path d="M283.5,136.3c-1.9-1.9-4.4-2.9-7.1-2.9s-5.2,1.1-7.1,2.9c-1.9,1.9-2.9,4.4-2.9,7.1c0,2.6,1.1,5.2,2.9,7.1
			c1.9,1.9,4.4,2.9,7.1,2.9s5.2-1.1,7.1-2.9c1.9-1.9,2.9-4.4,2.9-7.1C286.4,140.8,285.4,138.2,283.5,136.3z"/>
	</g>
</g>
</svg>
